HIERARCHY
ROOT pelvis
{
	OFFSET 0.003123 -0.351407 0.012037
	CHANNELS 6 Xposition Yposition Zposition Zrotation Yrotation Xrotation 
	JOINT left_hip
	{
		OFFSET 0.058189 -0.092763 -0.026001
		CHANNELS 3 Zrotation Yrotation Xrotation
		JOINT left_knee
		{
			OFFSET 0.054695 -0.378753 -0.009396
			CHANNELS 3 Zrotation Yrotation Xrotation
			JOINT left_ankle
			{
				OFFSET -0.043453 -0.403059 -0.031876
				CHANNELS 3 Zrotation Yrotation Xrotation
				JOINT left_foot
				{
					OFFSET 0.047257 -0.057997 0.118216
					CHANNELS 3 Zrotation Yrotation Xrotation
					End Site
					{
						OFFSET 0.000000 0.000000 0.000000
					}
				}
			}
		}
	}
	JOINT right_hip
	{
		OFFSET -0.063267 -0.103908 -0.021250
		CHANNELS 3 Zrotation Yrotation Xrotation
		JOINT right_knee
		{
			OFFSET -0.044210 -0.362380 -0.016824
			CHANNELS 3 Zrotation Yrotation Xrotation
			JOINT right_ankle
			{
				OFFSET 0.015417 -0.410728 -0.020192
				CHANNELS 3 Zrotation Yrotation Xrotation
				JOINT right_foot
				{
					OFFSET -0.038812 -0.058328 0.119049
					CHANNELS 3 Zrotation Yrotation Xrotation
					End Site
					{
						OFFSET 0.000000 0.000000 0.000000
					}
				}
			}
		}
	}
	JOINT spine_1
	{
		OFFSET -0.002763 0.109891 -0.027618
		CHANNELS 3 Zrotation Yrotation Xrotation
		JOINT spine_2
		{
			OFFSET 0.009448 0.131853 -0.005940
			CHANNELS 3 Zrotation Yrotation Xrotation
			JOINT spine_3
			{
				OFFSET -0.011330 0.052235 0.028447
				CHANNELS 3 Zrotation Yrotation Xrotation
				JOINT neck
				{
					OFFSET -0.012164 0.165167 -0.031615
					CHANNELS 3 Zrotation Yrotation Xrotation
					JOINT head
					{
						OFFSET 0.024783 0.160452 0.020737
						CHANNELS 3 Zrotation Yrotation Xrotation
						End Site
						{
							OFFSET 0.000000 0.000000 0.000000
						}
					}
				}
				JOINT left_collar
				{
					OFFSET 0.046364 0.084944 -0.007220
					CHANNELS 3 Zrotation Yrotation Xrotation
					JOINT left_shoulder
					{
						OFFSET 0.119239 0.057728 -0.015461
						CHANNELS 3 Zrotation Yrotation Xrotation
						JOINT left_elbow
						{
							OFFSET 0.254123 -0.072151 -0.042459
							CHANNELS 3 Zrotation Yrotation Xrotation
							JOINT left_wrist
							{
								OFFSET 0.251987 0.023221 -0.002472
								CHANNELS 3 Zrotation Yrotation Xrotation
								JOINT left_index_1
								{
									OFFSET 0.101902 -0.008688 0.019351
									CHANNELS 3 Zrotation Yrotation Xrotation
									JOINT left_index_2
									{
										OFFSET 0.030149 -0.011154 0.001151
										CHANNELS 3 Zrotation Yrotation Xrotation
										JOINT left_index_3
										{
											OFFSET 0.006504 -0.021577 -0.002433
											CHANNELS 3 Zrotation Yrotation Xrotation
											End Site
											{
												OFFSET 0.000000 0.000000 0.000000
											}
										}
									}
								}
								JOINT left_middle_1
								{
									OFFSET 0.109398 -0.006328 -0.003981
									CHANNELS 3 Zrotation Yrotation Xrotation
									JOINT left_middle_2
									{
										OFFSET 0.026472 -0.015218 -0.004641
										CHANNELS 3 Zrotation Yrotation Xrotation
										JOINT left_middle_3
										{
											OFFSET 0.005022 -0.023347 -0.001911
											CHANNELS 3 Zrotation Yrotation Xrotation
											End Site
											{
												OFFSET 0.000000 0.000000 0.000000
											}
										}
									}
								}
								JOINT left_pinky_1
								{
									OFFSET 0.084047 -0.014539 -0.043750
									CHANNELS 3 Zrotation Yrotation Xrotation
									JOINT left_pinky_2
									{
										OFFSET 0.012124 -0.014448 -0.005375
										CHANNELS 3 Zrotation Yrotation Xrotation
										JOINT left_pinky_3
										{
											OFFSET 0.003798 -0.018853 0.000167
											CHANNELS 3 Zrotation Yrotation Xrotation
											End Site
											{
												OFFSET 0.000000 0.000000 0.000000
											}
										}
									}
								}
								JOINT left_ring_1
								{
									OFFSET 0.097444 -0.009268 -0.027345
									CHANNELS 3 Zrotation Yrotation Xrotation
									JOINT left_ring_2
									{
										OFFSET 0.023561 -0.016057 -0.001895
										CHANNELS 3 Zrotation Yrotation Xrotation
										JOINT left_ring_3
										{
											OFFSET 0.004257 -0.023548 0.000814
											CHANNELS 3 Zrotation Yrotation Xrotation
											End Site
											{
												OFFSET 0.000000 0.000000 0.000000
											}
										}
									}
								}
								JOINT left_thumb_1
								{
									OFFSET 0.040636 -0.017977 0.025611
									CHANNELS 3 Zrotation Yrotation Xrotation
									JOINT left_thumb_2
									{
										OFFSET 0.021637 -0.017639 0.011623
										CHANNELS 3 Zrotation Yrotation Xrotation
										JOINT left_thumb_3
										{
											OFFSET 0.024002 -0.008356 0.006548
											CHANNELS 3 Zrotation Yrotation Xrotation
											End Site
											{
												OFFSET 0.000000 0.000000 0.000000
											}
										}
									}
								}
							}
						}
					}
				}
				JOINT right_collar
				{
					OFFSET -0.047695 0.084339 -0.013400
					CHANNELS 3 Zrotation Yrotation Xrotation
					JOINT right_shoulder
					{
						OFFSET -0.102578 0.053524 -0.012669
						CHANNELS 3 Zrotation Yrotation Xrotation
						JOINT right_elbow
						{
							OFFSET -0.271150 -0.036492 -0.026467
							CHANNELS 3 Zrotation Yrotation Xrotation
							JOINT right_wrist
							{
								OFFSET -0.249267 -0.004533 -0.015325
								CHANNELS 3 Zrotation Yrotation Xrotation
								JOINT right_index_1
								{
									OFFSET -0.099881 -0.011783 0.019600
									CHANNELS 3 Zrotation Yrotation Xrotation
									JOINT right_index_2
									{
										OFFSET -0.030148 -0.011154 0.001151
										CHANNELS 3 Zrotation Yrotation Xrotation
										JOINT right_index_3
										{
											OFFSET -0.006505 -0.021577 -0.002432
											CHANNELS 3 Zrotation Yrotation Xrotation
											End Site
											{
												OFFSET 0.000000 0.000000 0.000000
											}
										}
									}
								}
								JOINT right_middle_1
								{
									OFFSET -0.107376 -0.009422 -0.003734
									CHANNELS 3 Zrotation Yrotation Xrotation
									JOINT right_middle_2
									{
										OFFSET -0.026472 -0.015218 -0.004641
										CHANNELS 3 Zrotation Yrotation Xrotation
										JOINT right_middle_3
										{
											OFFSET -0.005022 -0.023347 -0.001911
											CHANNELS 3 Zrotation Yrotation Xrotation
											End Site
											{
												OFFSET 0.000000 0.000000 0.000000
											}
										}
									}
								}
								JOINT right_pinky_1
								{
									OFFSET -0.082027 -0.017634 -0.043503
									CHANNELS 3 Zrotation Yrotation Xrotation
									JOINT right_pinky_2
									{
										OFFSET -0.012123 -0.014448 -0.005374
										CHANNELS 3 Zrotation Yrotation Xrotation
										JOINT right_pinky_3
										{
											OFFSET -0.003798 -0.018852 0.000167
											CHANNELS 3 Zrotation Yrotation Xrotation
											End Site
											{
												OFFSET 0.000000 0.000000 0.000000
											}
										}
									}
								}
								JOINT right_ring_1
								{
									OFFSET -0.095423 -0.012362 -0.027099
									CHANNELS 3 Zrotation Yrotation Xrotation
									JOINT right_ring_2
									{
										OFFSET -0.023561 -0.016057 -0.001895
										CHANNELS 3 Zrotation Yrotation Xrotation
										JOINT right_ring_3
										{
											OFFSET -0.004257 -0.023548 0.000816
											CHANNELS 3 Zrotation Yrotation Xrotation
											End Site
											{
												OFFSET 0.000000 0.000000 0.000000
											}
										}
									}
								}
								JOINT right_thumb_1
								{
									OFFSET -0.038613 -0.021074 0.025861
									CHANNELS 3 Zrotation Yrotation Xrotation
									JOINT right_thumb_2
									{
										OFFSET -0.021636 -0.017639 0.011623
										CHANNELS 3 Zrotation Yrotation Xrotation
										JOINT right_thumb_3
										{
											OFFSET -0.024004 -0.008353 0.006547
											CHANNELS 3 Zrotation Yrotation Xrotation
											End Site
											{
												OFFSET 0.000000 0.000000 0.000000
											}
										}
									}
								}
							}
						}
					}
				}
			}
		}
	}
}
MOTION
Frames: 7
Frame Time: 0.050000
-0.306198 1.030067 -0.172318 6.629006 -1.635579 -13.959853 33.746381 12.705878 -71.593836 -88.189519 56.562523 60.030746 7.809361 25.286112 35.395619 0.000000 0.000000 0.000000 -8.752566 -0.344076 17.365573 9.001940 -0.784500 8.970057 3.699549 -10.362272 32.328512 0.000000 0.000000 0.000000 -16.103611 -0.531548 8.070973 -4.302686 -1.584033 -15.321191 12.132804 -0.009632 37.675807 -13.908828 3.028311 -5.089726 0.000000 0.000000 0.000000 2.858571 6.050345 -2.626117 -97.307887 -25.666089 0.372833 -99.687127 -49.636134 71.173088 3.758923 5.395691 -0.724652 -0.256468 1.118395 0.407397 23.225850 -2.715416 -4.364062 0.000000 0.000000 0.000000 3.468280 -2.234269 -0.751690 17.980736 -1.153880 3.182293 0.000000 0.000000 0.000000 19.153839 -7.230849 -1.957450 1.031636 1.721104 8.591967 0.000000 0.000000 0.000000 6.424179 0.402346 0.823942 14.524407 0.605822 0.463147 0.000000 0.000000 0.000000 7.935986 7.862937 2.731703 -12.455220 -11.630092 0.516615 0.000000 0.000000 0.000000 0.314039 -7.542736 -4.000708 11.406600 18.008994 -2.395528 -6.682259 0.902330 0.342627 -3.466134 -2.117322 -1.607816 -0.982162 0.845486 -0.353120 -31.139180 3.336538 -3.644321 0.000000 0.000000 0.000000 -5.939874 7.061134 -3.485757 -24.358915 1.938271 8.895364 0.000000 0.000000 0.000000 -23.220397 10.986372 -6.974233 -8.087000 -1.808356 13.396896 0.000000 0.000000 0.000000 -9.149366 2.226056 -1.014942 -21.887488 -0.800740 -1.107812 0.000000 0.000000 0.000000 -12.275461 -9.057785 1.878638 15.445170 11.052690 1.728139 0.000000 0.000000 0.000000 
-0.304314 1.034580 -0.188156 7.023574 -2.658650 -11.667267 31.631991 11.148524 -68.605041 -88.124023 60.788435 64.588374 6.991178 26.048920 42.785605 0.000000 0.000000 0.000000 -10.156495 -0.005116 18.959357 10.712084 -0.549615 1.544734 4.424117 -8.598785 29.445592 0.000000 0.000000 0.000000 -16.548346 -0.450253 7.767217 -4.423599 -1.535425 -15.151344 12.152491 3.059809 34.688975 -12.962236 2.760669 -6.346764 0.000000 0.000000 0.000000 2.940807 4.367358 -1.746563 -93.927276 -29.785306 1.516789 -110.195396 -44.647725 76.097907 3.937123 5.773804 -0.128527 0.653684 -1.507407 -0.579366 27.150945 -2.984010 -2.428170 0.000000 0.000000 0.000000 4.691800 -3.659863 -1.451024 20.870981 -1.540103 2.457317 0.000000 0.000000 0.000000 20.649705 -8.867582 -3.981658 4.552470 1.691986 10.236999 0.000000 0.000000 0.000000 9.114505 -2.622028 -1.335058 14.842829 0.696273 3.299722 0.000000 0.000000 0.000000 7.997672 5.650793 0.672131 -12.453627 -6.024359 1.846585 0.000000 0.000000 0.000000 -0.986621 -7.411134 -3.748405 8.737405 15.124535 -2.129981 -2.884013 1.440267 0.123140 -2.790514 -2.334469 -0.396208 -2.081951 1.492845 -0.655565 -33.650941 3.523986 -4.193356 0.000000 0.000000 0.000000 -7.622686 4.225404 -1.419285 -27.498835 2.195183 1.866150 0.000000 0.000000 0.000000 -23.139702 9.248392 -3.550153 -11.983191 -0.746004 6.608113 0.000000 0.000000 0.000000 -10.482814 2.945267 -1.527654 -23.732309 -0.718431 3.900035 0.000000 0.000000 0.000000 -13.264699 -9.859184 2.271093 16.008966 11.767291 1.788321 0.000000 0.000000 0.000000 
-0.296776 1.039093 -0.196075 5.772947 -7.769287 -10.398005 33.961534 13.813136 -61.179205 -72.549089 59.263925 78.996066 3.036954 22.997962 41.442833 0.000000 0.000000 0.000000 -8.809961 0.098142 20.472791 9.989882 0.003327 -4.979277 4.913248 -8.544492 29.016566 0.000000 0.000000 0.000000 -14.090328 -0.369333 7.142527 -4.896490 -1.703260 -15.612271 11.439947 4.377978 34.780757 -13.776524 2.976922 -9.954874 0.000000 0.000000 0.000000 -0.342281 8.704171 -4.435525 -89.512939 -32.994887 3.520799 -115.364656 -43.641499 80.490903 3.694272 4.101933 1.037977 2.120153 -1.368369 -0.614418 24.412351 -2.885513 -1.933233 0.000000 0.000000 0.000000 6.907342 -3.283236 -0.881482 18.672300 -1.458227 2.345795 0.000000 0.000000 0.000000 23.820373 -10.394233 -4.958687 -0.101820 2.387541 12.432668 0.000000 0.000000 0.000000 10.030587 -0.935904 0.115189 17.150486 0.517411 -0.485131 0.000000 0.000000 0.000000 10.040338 5.708931 -0.184076 -14.861012 -9.651444 1.888304 0.000000 0.000000 0.000000 -4.534068 -2.896485 -1.004131 4.955344 14.411536 -2.126828 0.524905 3.144785 -0.079688 -4.353940 -2.229283 -2.438462 -2.485460 1.914790 -0.833758 -33.520787 3.451399 -5.254570 0.000000 0.000000 0.000000 -7.797986 6.291221 -2.773690 -26.231880 2.071815 3.770535 0.000000 0.000000 0.000000 -24.945913 10.749889 -5.882522 -10.063259 -1.426755 11.645607 0.000000 0.000000 0.000000 -9.538443 4.058936 -2.481481 -24.275477 -0.780679 3.301629 0.000000 0.000000 0.000000 -14.482502 -10.250889 1.949233 17.733079 10.962372 2.520308 0.000000 0.000000 0.000000 
-0.289238 1.042316 -0.206635 4.742127 -13.268995 -8.788189 36.634789 15.607543 -52.092003 -57.384529 50.730803 85.749494 1.937432 21.715733 39.214291 0.000000 0.000000 0.000000 -7.243059 0.146751 19.864915 7.272825 0.205595 -7.468628 8.029959 -4.254678 25.815211 0.000000 0.000000 0.000000 -12.245725 -0.326564 5.873197 -5.822062 -2.055375 -17.366919 13.078921 8.039169 36.192420 -13.339674 3.004613 -12.985505 0.000000 0.000000 0.000000 -0.962881 7.469115 -3.956046 -84.064584 -36.568049 4.244883 -119.174745 -48.132766 91.760977 4.635633 3.139322 -2.041610 -0.345622 -0.026453 0.004519 27.330940 -2.913892 -2.825799 0.000000 0.000000 0.000000 5.110465 -2.993740 -0.968471 17.843252 -1.063638 4.644709 0.000000 0.000000 0.000000 20.793400 -8.522153 -3.519321 0.732758 1.914584 9.580793 0.000000 0.000000 0.000000 9.326216 -2.201520 -1.006491 15.593344 0.801262 4.223748 0.000000 0.000000 0.000000 8.578082 6.845570 1.380274 -13.390562 -9.507378 1.304851 0.000000 0.000000 0.000000 -7.643140 -2.706022 -0.612169 0.837280 14.381197 -2.127929 1.993542 6.524268 -0.150667 -4.441317 -2.540946 -0.780680 -1.365783 1.458593 -0.605117 -34.026844 3.632409 -6.030346 0.000000 0.000000 0.000000 -7.485378 6.615702 -3.018771 -26.520331 2.266339 5.218786 0.000000 0.000000 0.000000 -23.874161 11.069600 -6.527852 -13.181940 -1.100537 12.188858 0.000000 0.000000 0.000000 -11.172668 4.413545 -2.679640 -23.109069 -0.642184 3.931025 0.000000 0.000000 0.000000 -13.265146 -10.234945 2.817076 16.452941 12.176593 1.886684 0.000000 0.000000 0.000000 
-0.279816 1.042316 -0.222473 2.248854 -15.008330 -6.537348 37.505217 15.210994 -46.972295 -47.188852 38.858295 81.323138 -4.509097 14.724116 36.851916 0.000000 0.000000 0.000000 -3.393943 -0.725124 19.085635 3.435947 0.063971 -8.693999 10.213116 0.790472 21.437008 0.000000 0.000000 0.000000 -9.062029 -0.374527 5.368099 -5.968470 -2.630629 -19.546008 12.072088 6.309553 36.927252 -13.885405 3.226701 -16.286899 0.000000 0.000000 0.000000 0.387519 6.203351 -3.131293 -75.179581 -40.985907 5.313072 -118.723058 -60.687759 106.202414 2.631876 3.040563 -5.578345 3.186154 -1.781161 -0.795989 23.977597 -2.461948 -5.144479 0.000000 0.000000 0.000000 6.935385 -4.502804 -1.720983 18.681926 -1.052332 1.005201 0.000000 0.000000 0.000000 16.705636 -7.832410 -5.024771 8.196540 0.958406 5.608706 0.000000 0.000000 0.000000 6.887906 -3.910632 -2.585078 19.133625 1.021383 2.940305 0.000000 0.000000 0.000000 11.992317 5.947861 -1.753374 -14.891378 -9.350304 1.699167 0.000000 0.000000 0.000000 -8.910701 1.182513 1.436532 -6.491683 13.307628 -1.910791 1.359367 8.218482 -0.198277 -4.386097 -2.022037 -1.380099 -1.095236 0.969893 -0.412085 -35.516869 3.871341 -6.963721 0.000000 0.000000 0.000000 -7.277849 7.738694 -3.786244 -29.439592 2.824529 6.053907 0.000000 0.000000 0.000000 -26.375655 11.569730 -6.032702 -10.860434 -1.305519 12.753797 0.000000 0.000000 0.000000 -11.614874 3.904156 -2.195147 -25.427961 -0.515817 3.482053 0.000000 0.000000 0.000000 -15.020092 -10.351376 2.371194 17.744324 11.223833 2.562884 0.000000 0.000000 0.000000 
-0.268509 1.040382 -0.235672 -0.485291 -16.543940 -5.817088 37.784705 13.967139 -40.779488 -40.699716 27.784668 68.250215 -8.887749 11.032634 39.147715 0.000000 0.000000 0.000000 0.091011 -1.474584 18.358503 1.471758 -0.042404 -7.744432 10.135210 2.579736 18.236539 0.000000 0.000000 0.000000 -5.515479 -0.508453 6.713147 -6.125616 -3.213571 -21.808962 11.783320 7.318314 37.616962 -13.253383 3.277405 -17.778851 0.000000 0.000000 0.000000 4.532289 0.856784 -0.279475 -64.387600 -42.690380 3.132968 -94.536014 -74.597890 93.170572 2.918715 1.480741 -9.723513 2.162622 0.019083 -0.077727 22.878993 -1.960228 -5.698836 0.000000 0.000000 0.000000 5.145567 -4.082982 -1.709588 17.623465 -0.471855 3.947175 0.000000 0.000000 0.000000 15.561545 -7.942227 -6.880834 6.313678 1.862300 9.036490 0.000000 0.000000 0.000000 5.937309 -2.166136 -1.353747 16.510060 1.039145 -0.533937 0.000000 0.000000 0.000000 13.366014 6.301331 -2.743579 -16.990160 -8.400996 2.372396 0.000000 0.000000 0.000000 -10.653579 5.087411 3.187609 -13.616455 10.106857 -0.952509 -0.076832 8.207520 -0.228179 -4.828905 -2.397183 -1.715066 -1.503748 1.888105 -0.787570 -37.227160 4.043081 -4.695765 0.000000 0.000000 0.000000 -7.746161 8.281418 -4.106305 -29.384994 2.803489 5.068866 0.000000 0.000000 0.000000 -27.399284 11.826753 -6.029815 -13.011877 -0.917107 11.034938 0.000000 0.000000 0.000000 -11.507844 4.899718 -3.007459 -28.639454 -0.434495 4.376050 0.000000 0.000000 0.000000 -16.159256 -11.979694 3.765251 18.350755 13.150534 2.412273 0.000000 0.000000 0.000000 
-0.268509 1.036514 -0.246231 -2.206414 -10.891845 -5.118020 34.126924 9.015055 -37.353387 -34.785983 16.373761 50.615129 -9.386716 12.701040 45.036197 0.000000 0.000000 0.000000 2.641687 -2.176510 16.639859 1.537130 -0.089268 -2.962985 7.199971 3.687379 11.822003 0.000000 0.000000 0.000000 -4.426278 -0.458465 5.017719 -6.077057 -2.879546 -21.432296 10.574248 3.957835 38.279578 -12.497980 3.228747 -18.195634 0.000000 0.000000 0.000000 9.809505 -4.443636 2.122893 -54.783437 -45.401559 1.014505 -26.154254 -69.757730 28.123338 2.032253 0.863243 -9.459310 2.412845 -1.471219 -0.596826 21.924753 -1.686561 -3.736385 0.000000 0.000000 0.000000 4.437169 -4.047075 -1.792121 16.528960 -0.435805 2.305908 0.000000 0.000000 0.000000 14.481475 -7.277016 -6.287266 4.866456 1.937387 8.654100 0.000000 0.000000 0.000000 5.760752 -2.095168 -1.331260 15.021813 1.131361 1.305996 0.000000 0.000000 0.000000 10.842312 5.163849 -2.367346 -13.717291 -8.450137 1.227107 0.000000 0.000000 0.000000 -11.252059 2.375864 2.029005 -21.511218 12.778993 -1.707142 -2.648075 7.663612 -0.234439 -4.603581 -2.382798 -1.140866 -4.738082 0.953514 -0.591334 -33.859401 3.899272 -5.963775 0.000000 0.000000 0.000000 -7.382087 7.721918 -3.758282 -30.926158 3.016442 5.056878 0.000000 0.000000 0.000000 -27.598597 12.199386 -6.677245 -12.606199 -1.054251 12.355848 0.000000 0.000000 0.000000 -10.878481 4.595772 -2.760839 -28.929391 -0.487620 3.308635 0.000000 0.000000 0.000000 -17.548390 -12.434713 3.699068 18.461413 12.457231 2.586868 0.000000 0.000000 0.000000 
